<svg width="510" height="400" viewBox="0 0 510 400" fill="none" xmlns="http://www.w3.org/2000/svg">
<path opacity="0.2" d="M64.9347 254.289L1.76111 199.748C11.3969 189.006 96.5592 94.4402 141.468 60.5534C202.477 9.283 284.47 -9.71072 361.078 9.68551C415.572 22.9434 466.795 50.9182 509.213 90.5409L474.494 126.365C461.939 139.321 441.511 140.906 426.893 130.239C400.602 111.044 371.267 97.2578 340.674 89.8113L340.222 89.6855C289.879 76.8805 235.762 89.6603 195.483 123.874L194.452 124.755L193.345 125.56C161.293 149.384 89.7663 226.541 64.9347 254.289Z" fill="#F4F2EF"/>
<path opacity="0.2" d="M569.166 145.56L632.34 200.101C622.704 210.843 537.541 305.409 492.633 339.296C431.623 390.566 349.631 409.56 272.997 390.164C218.504 376.906 167.28 348.931 124.863 309.308L159.582 273.484C172.136 260.528 192.565 258.943 207.182 269.61C233.473 288.805 262.808 302.591 293.401 310.038L293.854 310.164C344.197 322.969 398.313 310.189 438.592 275.975L439.624 275.094L440.705 274.289C472.758 250.491 544.284 173.308 569.116 145.56H569.166Z" fill="#F77A33"/>
</svg>
