<svg width="209" height="35" viewBox="0 0 209 35" fill="none" xmlns="http://www.w3.org/2000/svg">
<g clip-path="url(#clip0_2928_2347)">
<path d="M34.598 6.6429L29.0595 21.3926L23.2608 6.6429H19.2997L27.2385 26.1838L24.0057 34.9882H27.6216L38.4503 6.6429H34.598Z" fill="#213E60"/>
<path d="M55.2149 17.5284H57.1044C57.2487 15.1777 56.972 13.1486 56.2696 11.4412C55.5791 9.73378 54.5314 8.41892 53.1267 7.49899C51.722 6.56723 50.0193 6.09899 48.021 6.09899C46.0226 6.09899 44.4287 6.52939 42.9885 7.38784C41.546 8.24865 40.4203 9.46419 39.6091 11.0392C38.8098 12.6142 38.4101 14.473 38.4101 16.6179C38.4101 18.6399 38.8169 20.4206 39.628 21.9601C40.451 23.4855 41.5956 24.6797 43.0618 25.5405C44.5399 26.3895 46.2544 26.8128 48.203 26.8128C50.1517 26.8128 51.8308 26.3351 53.3821 25.3774C54.9335 24.4078 56.0899 23.0456 56.8537 21.2885L53.1291 20.1084C52.6443 21.1135 51.9655 21.8892 51.0929 22.4331C50.2321 22.9652 49.2081 23.2324 48.0233 23.2324C46.2189 23.2324 44.8378 22.6459 43.8801 21.4706C43.0902 20.4892 42.6314 19.172 42.4943 17.5284H55.2196H55.2149ZM43.8753 11.2591C44.8331 10.0601 46.2615 9.45946 48.1628 9.45946C49.8821 9.45946 51.1615 10.0034 51.9963 11.0936C52.6348 11.9142 53.0392 13.0706 53.2118 14.5652H42.5747C42.7757 13.203 43.2061 12.0986 43.8753 11.2591Z" fill="#213E60"/>
<path d="M14.7402 7.49662C13.3355 6.56487 11.6328 6.09662 9.63446 6.09662C7.63615 6.09662 6.04223 6.52703 4.60203 7.38547C3.15946 8.24629 2.03379 9.46182 1.22264 11.0368C0.423313 12.6118 0.0236511 14.4706 0.0236511 16.6155C0.0236511 18.6375 0.430408 20.4182 1.24156 21.9578C2.06453 23.4831 3.20912 24.6774 4.67534 25.5382C6.15338 26.3872 7.86791 26.8105 9.81656 26.8105C11.7652 26.8105 13.4443 26.3328 14.9956 25.375C16.547 24.4054 17.7034 23.0432 18.4649 21.2861L14.7402 20.1061C14.2554 21.1112 13.5767 21.8868 12.7041 22.4307C11.8432 22.9628 10.8193 23.2301 9.63446 23.2301C7.83007 23.2301 6.44899 22.6436 5.49122 21.4682C4.69899 20.4868 4.24021 19.1696 4.10304 17.526H18.7179C18.8622 15.1753 18.5855 13.1463 17.8831 11.4389C17.1926 9.73142 16.1449 8.41655 14.7402 7.49662ZM5.49122 11.2591C6.44899 10.0601 7.87737 9.45946 9.77872 9.45946C11.498 9.45946 12.7774 10.0034 13.6122 11.0936C14.2507 11.9142 14.6551 13.0706 14.8277 14.5652H4.19054C4.39156 13.203 4.82196 12.0986 5.49122 11.2591Z" fill="#213E60"/>
<path d="M125.806 7.46115C124.475 6.55304 122.888 6.09899 121.046 6.09899C119.203 6.09899 117.628 6.55304 116.358 7.46115C116.129 7.62433 115.914 7.80169 115.703 7.98852V0.104057H111.889V26.2689H115.268V24.4622C115.614 24.824 115.987 25.1574 116.394 25.453C117.666 26.3612 119.241 26.8152 121.119 26.8152C122.997 26.8152 124.522 26.3612 125.844 25.453C127.175 24.5449 128.199 23.3081 128.916 21.7473C129.642 20.1723 130.006 18.4034 130.006 16.4405C130.006 14.4777 129.642 12.7041 128.916 11.1527C128.19 9.58953 127.154 8.3598 125.808 7.46352L125.806 7.46115ZM125.369 19.9618C124.981 21.0047 124.387 21.8324 123.588 22.452C122.8 23.0693 121.8 23.3791 120.589 23.3791C119.378 23.3791 118.324 23.0834 117.536 22.4875C116.749 21.8939 116.174 21.0757 115.81 20.0351C115.446 18.9922 115.266 17.7932 115.266 16.4382C115.266 15.0831 115.448 13.8818 115.81 12.8412C116.186 11.7983 116.756 10.9872 117.517 10.4054C118.293 9.82365 119.274 9.53277 120.461 9.53277C121.722 9.53277 122.758 9.84257 123.569 10.4598C124.38 11.077 124.981 11.9071 125.369 12.95C125.768 13.9929 125.969 15.1541 125.969 16.4382C125.969 17.7223 125.768 18.9095 125.369 19.9642V19.9618Z" fill="#213E60"/>
<path d="M167.607 7.42568C166.165 6.54122 164.465 6.09899 162.502 6.09899C160.539 6.09899 158.893 6.53412 157.45 7.40676C156.008 8.26757 154.889 9.47838 154.09 11.0416C153.291 12.5929 152.891 14.3902 152.891 16.4382C152.891 18.4861 153.279 20.2716 154.054 21.8348C154.842 23.3862 155.956 24.6017 157.398 25.4862C158.841 26.3706 160.541 26.8128 162.504 26.8128C164.467 26.8128 166.151 26.3777 167.591 25.5051C169.033 24.6206 170.147 23.4027 170.935 21.8537C171.734 20.2905 172.134 18.4861 172.134 16.4382C172.134 14.3902 171.741 12.6284 170.954 11.077C170.166 9.52568 169.052 8.31014 167.61 7.42568H167.607ZM166.699 21.3429C165.779 22.6034 164.379 23.2324 162.502 23.2324C160.624 23.2324 159.285 22.6152 158.342 21.3784C157.396 20.1416 156.925 18.4956 156.925 16.4358C156.925 15.1044 157.126 13.9338 157.526 12.9287C157.926 11.9118 158.538 11.1172 159.361 10.5473C160.184 9.96554 161.232 9.67466 162.504 9.67466C164.358 9.67466 165.751 10.2919 166.683 11.5287C167.629 12.7514 168.099 14.3878 168.099 16.4334C168.099 18.4791 167.633 20.0682 166.699 21.3405V21.3429Z" fill="#213E60"/>
<path d="M207.472 18.0179C207.06 17.3037 206.37 16.6912 205.4 16.1828C204.433 15.6625 203.123 15.1895 201.477 14.7662C199.94 14.3784 198.776 14.0449 197.989 13.7659C197.201 13.4868 196.669 13.1959 196.39 12.8932C196.123 12.5905 195.991 12.2216 195.991 11.7841C195.991 11.0321 196.348 10.4456 197.064 10.0223C197.778 9.58716 198.71 9.39324 199.862 9.44054C201.063 9.48784 202.038 9.78581 202.787 10.3297C203.539 10.8737 203.981 11.6209 204.114 12.5645L208.002 11.8551C207.855 10.6916 207.42 9.68176 206.692 8.82095C205.963 7.94831 205.015 7.27669 203.84 6.80372C202.664 6.33074 201.326 6.09426 199.824 6.09426C198.322 6.09426 196.941 6.33547 195.792 6.82027C194.652 7.30507 193.768 7.98851 193.139 8.87297C192.509 9.75743 192.195 10.7932 192.195 11.9804C192.195 12.9382 192.401 13.7541 192.812 14.4328C193.238 15.0997 193.938 15.6861 194.922 16.1946C195.915 16.6912 197.251 17.1571 198.935 17.5946C200.472 18.0061 201.619 18.3514 202.369 18.6304C203.121 18.9095 203.61 19.2051 203.84 19.522C204.081 19.8247 204.204 20.2243 204.204 20.7209C204.204 21.5699 203.863 22.2345 203.187 22.7193C202.52 23.2041 201.593 23.4453 200.406 23.4453C199.098 23.4453 198.001 23.1544 197.116 22.5726C196.244 21.9791 195.688 21.1726 195.444 20.1557L191.556 20.7564C191.897 22.6696 192.817 24.1547 194.319 25.2071C195.82 26.2618 197.764 26.7868 200.153 26.7868C202.541 26.7868 204.58 26.2358 205.984 25.1338C207.403 24.0318 208.11 22.5112 208.11 20.572C208.11 19.5669 207.898 18.7132 207.474 18.0108L207.472 18.0179Z" fill="#213E60"/>
<path d="M191.422 6.64291H186.59L178.885 16.0929V0.101692H175.033L175.017 26.2666H178.885V16.8189L187.099 26.2666H192.259L183.284 16.4547L191.422 6.64291Z" fill="#213E60"/>
<path d="M146.553 7.42568C145.11 6.54122 143.41 6.09899 141.447 6.09899C139.484 6.09899 137.839 6.53412 136.396 7.40676C134.953 8.26757 133.835 9.47838 133.035 11.0416C132.236 12.5929 131.836 14.3902 131.836 16.4382C131.836 18.4861 132.224 20.2716 133 21.8348C133.788 23.3862 134.901 24.6017 136.344 25.4862C137.786 26.3706 139.487 26.8128 141.45 26.8128C143.413 26.8128 145.096 26.3777 146.536 25.5051C147.979 24.6206 149.093 23.4027 149.88 21.8537C150.68 20.2905 151.079 18.4861 151.079 16.4382C151.079 14.3902 150.687 12.6284 149.899 11.077C149.112 9.52568 147.998 8.31014 146.555 7.42568H146.553ZM145.643 21.3429C144.723 22.6034 143.323 23.2324 141.445 23.2324C139.567 23.2324 138.229 22.6152 137.285 21.3784C136.339 20.1416 135.869 18.4956 135.869 16.4358C135.869 15.1044 136.067 13.9338 136.469 12.9287C136.869 11.9118 137.481 11.1172 138.304 10.5473C139.127 9.96554 140.175 9.67466 141.447 9.67466C143.301 9.67466 144.694 10.2919 145.626 11.5287C146.572 12.7514 147.043 14.3878 147.043 16.4334C147.043 18.4791 146.577 20.0682 145.643 21.3405V21.3429Z" fill="#213E60"/>
<path d="M63.9436 17.5686L60.7983 14.8561C61.2784 14.3216 65.5186 9.6179 67.7558 7.93176C70.7946 5.38243 74.8787 4.43648 78.6933 5.40135C81.4081 6.06115 83.9574 7.45169 86.0716 9.42162L84.3429 11.2024C83.7162 11.848 82.7017 11.926 81.9733 11.3939C80.6632 10.4385 79.2017 9.7527 77.6787 9.38378L77.6551 9.37905C75.1483 8.74291 72.4524 9.37905 70.447 11.0794L70.3949 11.1243L70.3406 11.1645C68.7443 12.3493 65.1828 16.1875 63.9436 17.5662V17.5686Z" fill="#213E60"/>
<path d="M106.84 13.2574C106.731 12.4581 106.525 11.6399 106.223 10.8051C105.92 9.97027 105.478 9.19932 104.896 8.49696C104.326 7.78277 103.581 7.20574 102.661 6.77061C101.741 6.33547 100.601 6.11554 99.2463 6.11554C97.4774 6.11554 95.9686 6.49628 94.7223 7.26013C93.9584 7.72601 93.3057 8.30777 92.7595 9.00304V6.6429H89.3611V12.2855C87.9682 13.8226 84.6905 17.3274 83.1794 18.4507L83.125 18.4909L83.073 18.5358C81.0676 20.2385 78.3716 20.8723 75.8649 20.2361L75.8412 20.2314C74.3182 19.8625 72.8568 19.1743 71.5466 18.2213C70.8182 17.6892 69.8013 17.7696 69.177 18.4128L67.4483 20.1936C69.5601 22.1635 72.1118 23.5541 74.8267 24.2139C78.6436 25.1787 82.7253 24.2351 85.7666 21.6834C86.7432 20.948 88.103 19.6355 89.3635 18.3466V26.2642H93.2159V16.0527C93.2159 14.8892 93.3436 13.903 93.5966 13.0919C93.8638 12.2807 94.2209 11.6257 94.6679 11.1291C95.129 10.6324 95.6611 10.2753 96.2666 10.0578C96.872 9.82838 97.5152 9.7125 98.1915 9.7125C99.2345 9.7125 100.076 9.92534 100.717 10.3486C101.372 10.772 101.874 11.3301 102.226 12.0206C102.59 12.7111 102.831 13.4632 102.952 14.2743C103.084 15.0736 103.151 15.8541 103.151 16.6179V26.2666H107.003V15.3645C107.003 14.7591 106.949 14.0568 106.84 13.2574Z" fill="#F77A33"/>
</g>
<defs>
<clipPath id="clip0_2928_2347">
<rect width="208.345" height="35" fill="white"/>
</clipPath>
</defs>
</svg>
