<svg width="151" height="151" viewBox="0 0 151 151" fill="none" xmlns="http://www.w3.org/2000/svg">
<g clip-path="url(#clip0_2516_1955)">
<mask id="mask0_2516_1955" style="mask-type:luminance" maskUnits="userSpaceOnUse" x="-33" y="-33" width="217" height="217">
<path d="M-32.254 -32.6871H183.906V183.473H-32.254V-32.6871Z" fill="white"/>
</mask>
<g mask="url(#mask0_2516_1955)">
<path d="M75.7587 150.214C117.022 150.214 150.473 116.764 150.473 75.4997C150.473 34.2364 117.022 0.785782 75.7587 0.785782C34.4952 0.785782 1.04456 34.2364 1.04456 75.4997C1.04456 116.764 34.4952 150.214 75.7587 150.214Z" fill="#1AB4D7"/>
<path d="M36.809 75.2838L49.5596 62.5017C49.9823 62.0708 50.2182 61.5004 50.2182 60.8955C50.2182 59.6347 49.1933 58.6108 47.9325 58.6108C47.3184 58.6108 46.7427 58.8515 46.3085 59.291C46.3072 59.2936 33.5694 72.0241 33.5694 72.0241L20.7733 59.272C20.3409 58.8457 19.768 58.6108 19.1605 58.6108C17.9012 58.6108 16.8761 59.6342 16.8761 60.8937C16.8761 61.5081 17.1214 62.0846 17.5616 62.519L30.3104 75.266L17.5682 88.032C17.1204 88.4731 16.8761 89.0508 16.8761 89.668C16.8761 90.9285 17.9012 91.9511 19.1605 91.9511C19.769 91.9511 20.3425 91.715 20.7733 91.2839L33.5495 78.5249L46.2772 91.2374C46.7287 91.704 47.311 91.9526 47.9325 91.9526C49.192 91.9526 50.2169 90.9285 50.2169 89.668C50.2169 89.0597 49.9813 88.4883 49.5524 88.0575L36.809 75.2838Z" fill="white"/>
<path d="M112.609 75.2802C112.609 77.5695 114.471 79.4316 116.763 79.4316C119.049 79.4316 120.911 77.5695 120.911 75.2802C120.911 72.9905 119.049 71.1286 116.763 71.1286C114.471 71.1286 112.609 72.9905 112.609 75.2802Z" fill="white"/>
<path d="M104.735 75.282C104.735 68.6528 110.128 63.259 116.758 63.259C123.385 63.259 128.779 68.6528 128.779 75.282C128.779 81.9097 123.385 87.3013 116.758 87.3013C110.128 87.3013 104.735 81.9097 104.735 75.282ZM100.006 75.282C100.006 84.5177 107.521 92.0317 116.758 92.0317C125.995 92.0317 133.514 84.5177 133.514 75.282C133.514 66.0451 125.995 58.529 116.758 58.529C107.521 58.529 100.006 66.0451 100.006 75.282Z" fill="white"/>
<path d="M98.8169 58.8154L98.1141 58.8134C96.0041 58.8134 93.969 59.4788 92.2693 60.7887C92.0453 59.7638 91.1293 58.9926 90.038 58.9926C88.7821 58.9926 87.7758 59.9989 87.7727 61.2574C87.7727 61.262 87.7803 89.4722 87.7803 89.4722C87.7836 90.7284 88.8083 91.7495 90.065 91.7495C91.3214 91.7495 92.3458 90.7284 92.3491 89.4694C92.3491 89.4639 92.3501 72.1209 92.3501 72.1209C92.3501 66.3386 92.8788 64.0034 97.8319 63.3844C98.2897 63.3275 98.7877 63.3364 98.7897 63.3364C100.145 63.2899 101.108 62.3585 101.108 61.0998C101.108 59.8403 100.08 58.8154 98.8169 58.8154Z" fill="white"/>
<path d="M54.9507 72.5244C54.9507 72.4619 54.9555 72.3968 54.9586 72.3325C56.2849 67.0894 61.0334 63.2094 66.6886 63.2094C72.4121 63.2094 77.2041 67.1847 78.4626 72.5244H54.9507ZM83.1409 72.0931C82.1564 67.432 79.6046 63.6034 75.7189 61.1447C70.0388 57.5385 62.5382 57.7381 57.0518 61.6396C52.5766 64.8233 49.9933 70.0313 49.9933 75.3962C49.9933 76.7414 50.1555 78.0993 50.493 79.4358C52.1829 86.0833 57.8975 91.1154 64.7108 91.9494C66.7326 92.1942 68.7005 92.077 70.7383 91.5494C72.4894 91.1233 74.1838 90.4131 75.745 89.4126C77.3655 88.371 78.7193 86.9974 80.0304 85.353C80.0568 85.3228 80.0835 85.2961 80.11 85.2643C81.0199 84.1357 80.8512 82.5308 79.8512 81.7646C79.0078 81.1182 77.592 80.8562 76.4779 82.2829C76.2384 82.6241 75.9713 82.9751 75.6772 83.3261C74.7913 84.305 73.6922 85.2534 72.3753 85.989C70.6994 86.8842 68.7897 87.3959 66.7595 87.4074C60.1145 87.3334 56.5587 82.695 55.2939 79.3842C55.073 78.766 54.9027 78.1247 54.784 77.4643C54.7685 77.3408 54.757 77.2215 54.7524 77.1117C56.1263 77.1117 78.5983 77.1079 78.5983 77.1079C81.8674 77.0393 83.6269 74.7318 83.1409 72.0931Z" fill="white"/>
</g>
</g>
<defs>
<clipPath id="clip0_2516_1955">
<rect width="150" height="150" fill="white" transform="translate(0.758667 0.5)"/>
</clipPath>
</defs>
</svg>
