<svg width="78" height="90" viewBox="0 0 78 90" fill="none" xmlns="http://www.w3.org/2000/svg">
<path d="M21.3129 39.5613C21.3129 40.1902 21.8227 40.7001 22.4518 40.7001H32.7615C33.3907 40.7001 33.9004 40.1902 33.9004 39.5613C33.9004 38.9321 33.3905 38.4224 32.7615 38.4224H22.4518C21.8227 38.4222 21.3129 38.9321 21.3129 39.5613Z" fill="#213E60"/>
<path d="M73.7609 0.0878906H8.68846C3.97225 0.0878906 0.1353 3.92484 0.1353 8.64123V27.8543C0.1353 28.4832 0.645241 28.9932 1.27419 28.9932H14.9591V49.419C14.9591 50.0479 15.4689 50.5579 16.098 50.5579C16.7271 50.5579 17.2369 50.0479 17.2369 49.419V27.8543V14.5199V8.64123C17.2369 6.16342 16.1773 3.92941 14.4889 2.36584H73.7607C74.7676 2.36584 75.5866 3.1848 75.5866 4.19186V73.852C75.5866 74.8589 74.7676 75.6779 73.7607 75.6779H71.0855C72.0333 73.8077 72.1302 71.5322 71.1471 69.5039C69.472 66.0598 65.3085 64.6158 61.866 66.2845L47.5238 73.2389C47.7137 70.9504 46.7597 68.6487 44.8458 67.1732L29.3937 55.2484C28.2875 54.3976 27.0741 53.984 25.6839 53.984H1.27436C0.645241 53.984 0.135475 54.4939 0.135475 55.1229C0.135475 55.7518 0.645417 56.2618 1.27436 56.2618H25.6841C26.5651 56.2618 27.3026 56.5133 28.0038 57.0526L43.4548 68.9766C45.1232 70.2628 45.704 72.4846 44.9303 74.4093C44.8962 74.4957 44.8588 74.5808 44.8194 74.6648C44.8031 74.6995 44.7855 74.7339 44.7681 74.7684C44.6356 75.0335 44.4789 75.2859 44.2954 75.5214C42.7225 77.5593 39.7859 77.9382 37.7504 76.3669L26.7952 67.9106C26.2972 67.5267 25.5821 67.6183 25.1978 68.1163C24.8134 68.6143 24.9055 69.3294 25.4033 69.7138L36.3585 78.1699C37.5797 79.1123 39.0508 79.6101 40.5769 79.6101C40.8789 79.6101 41.183 79.5906 41.488 79.5512C43.3321 79.3129 44.9697 78.3759 46.0956 76.917C46.2635 76.7014 46.4148 76.4738 46.5553 76.2398L62.86 68.3339C65.174 67.2119 67.9728 68.184 69.0983 70.4985C69.639 71.6138 69.7109 72.8789 69.3003 74.0607C69.0463 74.7925 68.6269 75.4344 68.08 75.9459C68.0621 75.9611 68.0449 75.9771 68.028 75.9932C67.7039 76.2873 67.3372 76.5367 66.9338 76.7324C63.8418 78.2314 61.1261 79.5843 58.7302 80.7778C49.4101 85.4205 44.7301 87.7544 40.1618 87.6264C35.5739 87.5016 30.6817 84.9053 20.935 79.7333C18.8834 78.6447 16.5584 77.4109 13.9971 76.0743C13.8345 75.9892 13.6536 75.9449 13.4701 75.9449H1.27436C0.645241 75.9449 0.135475 76.4548 0.135475 77.0838C0.135475 77.7127 0.645417 78.2227 1.27436 78.2227H13.1906C15.6475 79.506 17.8853 80.6936 19.8671 81.7453C30.2155 87.2367 35.3501 89.9119 40.5135 89.9118C45.409 89.9118 50.3303 87.5067 59.7457 82.8163C62.1365 81.6253 64.8464 80.2754 67.9271 78.7816C68.4024 78.5512 68.8382 78.272 69.2344 77.9551H73.7609C76.0238 77.9551 77.8645 76.1142 77.8645 73.8515V4.19168C77.8647 1.92885 76.0238 0.0878906 73.7609 0.0878906ZM14.9591 8.64123V14.5201V26.7156H2.41325V8.64123C2.41325 5.1808 5.22839 2.36584 8.68846 2.36584C12.1461 2.36566 14.9591 5.1808 14.9591 8.64123Z" fill="#213E60"/>
<path d="M27.1596 5.10938C26.5304 5.10938 26.0207 5.61932 26.0207 6.24826V7.29029C23.9834 7.54342 22.4103 9.09662 22.4103 10.9697C22.4103 12.8404 23.9834 14.3917 26.0207 14.6446V17.5494H23.6C22.9709 17.5494 22.4611 18.0594 22.4611 18.6883C22.4611 19.3172 22.9709 19.8272 23.6 19.8272H26.0207V20.8369C26.0207 21.466 26.5306 21.9758 27.1596 21.9758C27.7885 21.9758 28.2985 21.4658 28.2985 20.8369V19.7903C30.3356 19.5373 31.9088 17.9862 31.9088 16.1154C31.9088 14.2447 30.3358 12.6935 28.2985 12.4405V9.53115H30.7698C31.3989 9.53115 31.9086 9.02121 31.9086 8.39227C31.9086 7.76332 31.3987 7.25338 30.7698 7.25338H28.2985V6.24826C28.2985 5.61914 27.7885 5.10938 27.1596 5.10938ZM26.0207 12.3315C25.2571 12.1415 24.6883 11.595 24.6883 10.9696C24.6883 10.3422 25.2571 9.79395 26.0207 9.6034V12.3315ZM29.6309 16.1154C29.6309 16.7406 29.062 17.2873 28.2985 17.4773V14.7534C29.062 14.9435 29.6309 15.4901 29.6309 16.1154Z" fill="#F77A33"/>
<path d="M23.577 23.3542C22.9478 23.3542 22.4381 23.8642 22.4381 24.4931V31.8519C22.4381 32.481 22.948 32.9908 23.577 32.9908H30.7422C31.3713 32.9908 31.881 32.4808 31.881 31.8519V24.4931C31.881 23.864 31.3711 23.3542 30.7422 23.3542H23.577ZM29.6033 30.713H24.7159V25.632H29.6033V30.713Z" fill="#F77A33"/>
<path d="M22.4518 45.3847H32.7615C33.3907 45.3847 33.9004 44.8748 33.9004 44.2458C33.9004 43.6167 33.3905 43.1069 32.7615 43.1069H22.4518C21.8227 43.1069 21.3129 43.6169 21.3129 44.2458C21.3129 44.8748 21.8227 45.3847 22.4518 45.3847Z" fill="#213E60"/>
<path d="M42.841 12.9751H35.6756C35.0467 12.9751 34.5367 13.485 34.5367 14.114V31.8517C34.5367 32.4808 35.0467 32.9906 35.6756 32.9906H42.841C43.4701 32.9906 43.9799 32.4807 43.9799 31.8517V14.114C43.9799 13.485 43.47 12.9751 42.841 12.9751ZM41.7019 30.713H36.8145V15.253H41.7019V30.713Z" fill="#94B6EF"/>
<path d="M54.9397 32.9908C55.5686 32.9908 56.0785 32.4809 56.0785 31.8519V22.2246C56.0785 21.5956 55.5686 21.0857 54.9397 21.0857H47.7743C47.1452 21.0857 46.6354 21.5956 46.6354 22.2246V31.8519C46.6354 32.4811 47.1452 32.9908 47.7743 32.9908H54.9397ZM48.9134 23.3635H53.8008V30.7131H48.9134V23.3635Z" fill="#94B6EF"/>
<path d="M67.0383 32.9909C67.6675 32.9909 68.1772 32.4809 68.1772 31.852V8.134C68.1772 7.50506 67.6673 6.99512 67.0383 6.99512H59.8779C59.2488 6.99512 58.739 7.50506 58.739 8.134V31.852C58.739 32.4811 59.2488 32.9909 59.8779 32.9909H67.0383ZM61.0168 9.27289H65.8995V30.7129H61.0168V9.27289Z" fill="#94B6EF"/>
<path d="M22.4518 50.0649H32.7615C33.3907 50.0649 33.9004 49.5549 33.9004 48.926C33.9004 48.2971 33.3905 47.7871 32.7615 47.7871H22.4518C21.8227 47.7871 21.3129 48.2971 21.3129 48.926C21.3129 49.5549 21.8227 50.0649 22.4518 50.0649Z" fill="#213E60"/>
</svg>
