<svg width="90" height="90" viewBox="0 0 90 90" fill="none" xmlns="http://www.w3.org/2000/svg">
<path d="M70.7948 61.0698L59.8957 68.0571C59.3617 66.4951 58.1268 65.2203 56.4824 64.6722L37.3672 58.352C34.8476 57.5179 32.3131 57.8073 30.0373 59.1896L21.7353 64.2391L21.0943 63.2338C20.9192 62.9592 20.642 62.7652 20.3238 62.695C20.006 62.624 19.6727 62.6836 19.398 62.8589L9.98962 68.8609C9.41781 69.2257 9.24994 69.985 9.61486 70.557C9.9796 71.1285 10.7385 71.2969 11.311 70.9318L19.6836 65.5905L24.1059 72.5258L28.954 80.1299C28.9561 80.1332 28.9585 80.1362 28.9606 80.1396L30.3426 82.3068L21.9693 87.6484C21.3975 88.0132 21.2296 88.7725 21.5945 89.3445C21.8287 89.7117 22.2256 89.9125 22.6311 89.9125C22.8572 89.9125 23.0859 89.8501 23.2905 89.7195L32.6992 83.7174C33.271 83.3527 33.4388 82.5935 33.0741 82.0215L31.6997 79.866L35.2304 77.7159L50.4344 82.7439C51.4636 83.0848 52.4918 83.2544 53.5046 83.2542C55.271 83.2542 56.9907 82.7383 58.5847 81.7168L76.6218 70.1543C77.831 69.3782 78.6668 68.1738 78.9752 66.7628C79.2837 65.3513 79.0261 63.9079 78.2501 62.6985C76.6424 60.194 73.2983 59.4635 70.7948 61.0698ZM75.2953 68.0866L57.259 79.6483C55.3962 80.842 53.3037 81.1058 51.2063 80.4113L35.4623 75.2049C35.3366 75.1632 35.2063 75.1426 35.0766 75.1426C34.8537 75.1426 34.6324 75.2034 34.4378 75.3219L30.3785 77.7939L25.7354 70.5124L23.0567 66.3107L31.3133 61.2888C32.9769 60.2782 34.7544 60.0745 36.5953 60.6843L55.708 67.0038C56.9485 67.4172 57.7598 68.5909 57.7258 69.8892C57.7153 69.9342 57.7065 69.9801 57.7011 70.027C57.5871 71.0003 57.0489 71.9024 56.2966 72.3815C55.6022 72.8234 54.785 72.8939 53.8664 72.5891L45.1589 69.7098C44.5152 69.4969 43.82 69.8463 43.6071 70.4902C43.3942 71.1343 43.7437 71.8291 44.3876 72.042L53.094 74.921C53.7113 75.1258 54.3287 75.2274 54.9292 75.2274C55.8907 75.2274 56.8095 74.967 57.6158 74.4536C58.842 73.6727 59.7225 72.3637 60.0449 70.8796L72.1209 63.1376C73.4848 62.2624 75.3066 62.6611 76.1823 64.0255C77.0577 65.3891 76.6594 67.211 75.2953 68.0866Z" fill="#213E60"/>
<path d="M63.0123 31.1416C63.0909 31.8153 63.7002 32.2965 64.3748 32.2189C65.0486 32.1404 65.5311 31.5302 65.4522 30.8565C64.121 19.4618 54.4572 10.8689 42.9734 10.8689C30.4917 10.8689 20.337 21.0211 20.337 33.5002C20.337 45.9793 30.4917 56.1315 42.9734 56.1315C46.2414 56.1315 49.3923 55.4519 52.3385 54.1116C52.9559 53.8309 53.2289 53.1026 52.948 52.4849C52.6671 51.8676 51.939 51.5948 51.3213 51.8755C48.6967 53.0694 45.8881 53.6746 42.9734 53.6746C31.8463 53.6746 22.7938 44.6243 22.7938 33.5C22.7938 22.3757 31.8463 13.3254 42.9734 13.3254C53.2109 13.3256 61.8258 20.9848 63.0123 31.1416Z" fill="#213E60"/>
<path d="M50.7312 26.0461C51.4096 26.0461 51.9596 25.4962 51.9596 24.8177C51.9596 24.1394 51.4097 23.5894 50.7312 23.5894H44.202V20.4715C44.202 19.7932 43.6521 19.2432 42.9736 19.2432C42.2953 19.2432 41.7453 19.7932 41.7453 20.4715V23.5894H39.5522C36.4812 23.5894 33.9824 26.0881 33.9824 29.1592C33.9824 32.2302 36.4812 34.7288 39.5522 34.7288H41.7453V40.9597H35.2108C34.5324 40.9597 33.9824 41.5096 33.9824 42.1881C33.9824 42.8664 34.5323 43.4164 35.2108 43.4164H41.7453V46.5293C41.7453 47.2077 42.2953 47.7577 42.9736 47.7577C43.652 47.7577 44.202 47.2077 44.202 46.5293V43.4163H46.3899C49.461 43.4163 51.9596 40.9156 51.9596 37.8417C51.9596 34.7706 49.461 32.2719 46.3899 32.2719H44.2217H44.202V26.0461H50.7312ZM44.2217 34.7286H46.3899C48.1064 34.7286 49.5029 36.125 49.5029 37.8417C49.5029 39.5608 48.1064 40.9595 46.3899 40.9595H44.202V34.7286H44.2217ZM41.7453 32.2719H39.5522C37.8355 32.2719 36.4391 30.8755 36.4391 29.159C36.4391 27.4423 37.8355 26.0459 39.5522 26.0459H41.7453V32.2719Z" fill="#F77A33"/>
<path d="M10.9833 38.6422C11.0217 38.6422 11.0605 38.6402 11.099 38.6367C11.4235 38.6061 11.7223 38.4478 11.9299 38.1966L17.2011 31.8215C17.6335 31.2986 17.56 30.5244 17.0372 30.0922C16.5145 29.6597 15.74 29.7334 15.3079 30.256L12.0259 34.2251C12.0204 33.9836 12.0176 33.7419 12.0176 33.5002C12.0176 16.4312 25.9043 2.54461 42.9734 2.54461C58.5351 2.54461 71.736 14.1699 73.6803 29.5861C73.7652 30.2592 74.3808 30.7376 75.0526 30.651C75.7257 30.5662 76.2026 29.9517 76.1175 29.2787C74.019 12.6373 59.7702 0.0878906 42.9736 0.0878906C24.5498 0.0878906 9.56108 15.0768 9.56108 33.5002C9.56108 33.8873 9.56987 34.2742 9.58271 34.6604L5.39138 31.1917C4.86895 30.7591 4.09446 30.8324 3.66204 31.3548C3.22944 31.8774 3.30239 32.6517 3.82517 33.0841L10.2002 38.3602C10.4214 38.5432 10.6986 38.6422 10.9833 38.6422Z" fill="#F77A33"/>
<path d="M85.3917 34.1565H56.2163C55.5379 34.1565 54.9879 34.7063 54.9879 35.3849V56.2657C54.9879 56.9441 55.5378 57.4941 56.2163 57.4941H59.7866V62.4121C59.7866 62.9168 60.0952 63.3701 60.5649 63.555C60.711 63.6125 60.8636 63.6405 61.0146 63.6405C61.3489 63.6405 61.6764 63.5039 61.9135 63.2495L67.278 57.4941H85.3919C86.0703 57.4941 86.6203 56.9442 86.6203 56.2657V35.3849C86.6201 34.7063 86.0701 34.1565 85.3917 34.1565ZM84.1634 55.0374H66.7438C66.403 55.0374 66.0776 55.1791 65.8452 55.4283L62.2433 59.2929V56.2657C62.2433 55.5874 61.6933 55.0374 61.0149 55.0374H57.4446V36.6132H84.1634V55.0374Z" fill="#94B6EF"/>
<path d="M66.7759 52.8042C66.9694 52.9158 67.1805 52.9691 67.389 52.9691C67.8135 52.9691 68.2262 52.7488 68.4537 52.3549L75.2865 40.5246C75.6257 39.9372 75.4246 39.1859 74.8372 38.8466C74.2494 38.5076 73.4984 38.7086 73.1593 39.2959L66.3267 51.1262C65.9873 51.7136 66.1884 52.4649 66.7759 52.8042Z" fill="#94B6EF"/>
<path d="M64.7896 45.5776C65.2192 45.8269 65.697 45.9541 66.1816 45.9541C66.4246 45.9541 66.6694 45.9221 66.9108 45.8573C67.6309 45.6643 68.2333 45.203 68.6083 44.5563C68.9817 43.9086 69.0799 43.155 68.8853 42.4343C68.6911 41.715 68.2276 41.1135 67.5807 40.7406C66.9329 40.3662 66.1792 40.2671 65.4567 40.4624C64.736 40.657 64.1359 41.1208 63.7715 41.7605C63.3969 42.4065 63.2967 43.1599 63.4899 43.882C63.6827 44.6036 64.1456 45.2063 64.7896 45.5776Z" fill="#94B6EF"/>
<path d="M73.0044 47.0944C72.2369 48.4263 72.6943 50.1372 74.0271 50.9101C74.4648 51.1625 74.9433 51.2823 75.4163 51.2823C76.3822 51.2823 77.324 50.7818 77.8431 49.8871C78.6101 48.555 78.1525 46.8443 76.8231 46.0733C76.822 46.0728 76.821 46.0721 76.8199 46.0716C75.4887 45.3041 73.7775 45.7618 73.0044 47.0944Z" fill="#94B6EF"/>
</svg>
