<svg width="90" height="90" viewBox="0 0 90 90" fill="none" xmlns="http://www.w3.org/2000/svg">
<g clip-path="url(#clip0_2516_2086)">
<path d="M1.23131 19.8695C1.91105 19.8695 2.46195 19.3184 2.46195 18.6388V12.3406H55.0003V19.6703C55.0003 20.3501 55.5514 20.901 56.231 20.901C56.9105 20.901 57.4616 20.3499 57.4616 19.6703V6.61523C57.4616 3.16711 54.6586 0.361816 51.2133 0.361816H6.25391C2.80578 0.361816 0.000488281 3.16693 0.000488281 6.61523V18.6387C0.000488281 19.3184 0.551563 19.8695 1.23131 19.8695ZM6.25391 2.82346H51.2135C53.3016 2.82346 55.0003 4.52449 55.0003 6.61541V9.87897H2.46195V6.61523C2.46195 4.52449 4.16316 2.82346 6.25391 2.82346Z" fill="#F4F2EF"/>
<path d="M56.2311 66.2192C55.5514 66.2192 55.0005 66.7702 55.0005 67.4498V77.6595H2.4619V55.5361C2.4619 54.8563 1.91083 54.3054 1.23125 54.3054C0.551685 54.3054 0.000610352 54.8565 0.000610352 55.5361V83.3849C0.000610352 86.833 2.80573 89.6382 6.25403 89.6382H51.2136C54.6591 89.6382 57.4619 86.833 57.4619 83.3849V67.45C57.4619 66.7702 56.9108 66.2192 56.2311 66.2192ZM51.2134 87.1767H6.25385C4.16293 87.1767 2.4619 85.4757 2.4619 83.3849V80.1212H55.0003V83.3849C55.0005 85.4758 53.3015 87.1767 51.2134 87.1767Z" fill="#F4F2EF"/>
<path d="M21.2969 7.58189H36.1656C36.8453 7.58189 37.3962 7.03082 37.3962 6.35125C37.3962 5.67168 36.8451 5.12061 36.1656 5.12061H21.2969C20.6172 5.12061 20.0663 5.67168 20.0663 6.35125C20.0663 7.03082 20.6172 7.58189 21.2969 7.58189Z" fill="#F4F2EF"/>
<path d="M70.3971 30.702C69.7274 30.702 69.0644 30.7385 68.4087 30.8043C63.1959 26.842 58.8538 24.087 53.9735 21.6448C50.3085 19.8025 49.2083 19.9011 45.9421 20.1938C45.596 20.2247 45.2217 20.2583 44.8143 20.2922C39.9705 20.6914 35.3304 21.5511 30.843 22.3828C25.2755 23.4144 19.9957 24.3919 14.5084 24.5189C14.2698 22.9806 12.9404 21.7979 11.3362 21.7979H1.23125C0.551509 21.7979 0.000610352 22.349 0.000610352 23.0286C0.000610352 23.7082 0.551685 24.2592 1.23125 24.2592H11.3362C11.7511 24.2592 12.0887 24.5967 12.0887 25.0116V49.1632C12.0887 49.5781 11.7512 49.9156 11.3362 49.9156H1.23125C0.551509 49.9156 0.000610352 50.4666 0.000610352 51.1462C0.000610352 51.8258 0.551685 52.3768 1.23125 52.3768H11.3362C13.1084 52.3768 14.5502 50.9351 14.5502 49.163V48.5394C17.8252 48.8714 21.331 50.5209 25.2238 53.5567C25.3089 53.623 25.4026 53.678 25.5019 53.72C29.7157 55.4991 35.1052 56.2069 41.9791 55.8833C43.0983 55.8302 44.9535 55.9559 47.1015 56.1018C48.6054 56.204 50.1842 56.3105 51.7573 56.3787C54.3613 64.3811 61.9174 69.9061 70.3971 69.9061C81.2057 69.9061 89.9994 61.1126 89.9994 50.3039C89.9994 39.4951 81.2057 30.702 70.3971 30.702ZM41.8627 53.4249C35.4474 53.7261 30.4538 53.1016 26.6063 51.5138C22.2937 48.1765 18.3349 46.3864 14.5504 46.0668V26.9798C20.235 26.8508 25.6167 25.8544 31.2916 24.8027C35.7188 23.9824 40.2967 23.1341 45.0177 22.745C45.4318 22.7106 45.8111 22.6765 46.1618 22.6452C49.2698 22.3666 49.8298 22.3165 52.8702 23.8449C57.0392 25.9313 60.8111 28.2583 65.1204 31.4193C62.1432 32.2448 59.4231 33.7565 57.168 35.8191L55.3977 34.4658C53.4632 32.7045 50.8529 31.6974 48.04 31.629C45.4786 31.5663 42.9995 32.3153 41.4048 33.6317C39.3322 35.3424 38.9388 37.7401 40.3482 40.0519C41.8552 42.8664 46.1437 43.5918 50.6827 44.3598C53.7376 44.8766 56.8966 45.4112 58.9939 46.5674C62.7589 48.6503 63.6187 49.4605 62.7394 52.0457C62.5466 52.6131 61.6019 53.6089 57.4406 53.9021C54.3022 54.1232 50.4024 53.8587 47.2684 53.6458C45.0439 53.4952 43.1231 53.3647 41.8627 53.4249ZM51.0934 41.9332C47.3257 41.2956 43.4298 40.6364 42.5084 38.8719C42.4947 38.8456 42.4799 38.8199 42.4644 38.7946C41.6808 37.5267 41.8466 36.459 42.9717 35.5303C45.1108 33.7648 50.3823 33.1926 53.7732 36.3159C53.8009 36.3414 53.8296 36.3656 53.8595 36.3885L55.4517 37.6058C54.2968 38.969 53.3151 40.5025 52.5513 42.1835C52.0647 42.098 51.5778 42.0152 51.0934 41.9332ZM70.3971 67.445C63.2792 67.445 56.907 62.9931 54.3937 56.4479C54.5167 56.4488 54.641 56.4511 54.7635 56.4511C59.7267 56.4511 64.082 55.7455 65.0697 52.8381C66.7077 48.022 63.3919 46.1878 60.1837 44.4131C58.7196 43.6059 56.9358 43.0782 55.0467 42.6663C57.932 36.8541 63.827 33.1636 70.3971 33.1636C79.8485 33.1636 87.5379 40.853 87.5379 50.3044C87.5379 59.7558 79.8485 67.445 70.3971 67.445Z" fill="#F77A33"/>
<path d="M21.4289 76.0947C21.6228 76.2065 21.8343 76.2597 22.0431 76.2597C22.4685 76.2597 22.8821 76.0389 23.1101 75.6441L25.3098 71.8335L27.1409 74.365C27.3763 74.6903 27.75 74.8744 28.1381 74.8744C28.2498 74.8744 28.3628 74.8591 28.4739 74.8276C28.9713 74.6865 29.3275 74.2495 29.3654 73.7337L29.8989 66.4784H40.2062C41.2476 66.4784 42.0948 65.6334 42.0948 64.5949V58.8447C42.0948 57.8034 41.2477 56.9563 40.2062 56.9563H17.3605C16.3191 56.9563 15.472 57.8034 15.472 58.8447V64.5949C15.472 65.6334 16.3191 66.4784 17.3605 66.4784H21.8051L19.5041 68.0414C19.0763 68.332 18.8757 68.8591 19.0024 69.3607C19.129 69.8622 19.5554 70.2311 20.07 70.2839L23.1781 70.6031L20.9784 74.4137C20.6386 75.0022 20.8404 75.7547 21.4289 76.0947ZM27.1582 70.1888L26.1905 68.8512C25.985 68.567 25.6679 68.384 25.319 68.3483L23.6805 68.1801L27.4964 65.5882L27.1582 70.1888ZM17.9335 64.0169V59.4178H39.6335V64.0169H30.0802L30.138 63.2301C30.1726 62.7592 29.9348 62.3102 29.5261 62.074C29.1171 61.8377 28.6094 61.8564 28.219 62.1216L25.429 64.0167H17.9335V64.0169Z" fill="#94B6EF"/>
</g>
<defs>
<clipPath id="clip0_2516_2086">
<rect width="90" height="90" fill="white"/>
</clipPath>
</defs>
</svg>
