<svg width="90" height="90" viewBox="0 0 90 90" fill="none" xmlns="http://www.w3.org/2000/svg">
<path d="M48.2175 62.2366C47.5392 62.2366 46.9891 62.7866 46.9891 63.4649V69.1891C46.9891 70.1214 46.2306 70.8799 45.2983 70.8799H7.28385C6.35151 70.8799 5.59301 70.1214 5.59301 69.1891V4.23545C5.59301 3.30311 6.35151 2.54461 7.28385 2.54461H45.2983C46.2306 2.54461 46.9891 3.30311 46.9891 4.23545V15.0469C46.9891 15.7252 47.5392 16.2752 48.2175 16.2752C48.8958 16.2752 49.4459 15.7252 49.4459 15.0469V4.23545C49.4459 1.94853 47.5854 0.0878906 45.2983 0.0878906H7.28385C4.99694 0.0878906 3.13629 1.94836 3.13629 4.23545V69.1891C3.13629 71.4762 4.99694 73.3368 7.28385 73.3368H11.6155V86.9481C11.6155 87.4076 11.8719 87.8288 12.2803 88.0397L15.6421 89.7752C15.9957 89.9575 16.4157 89.9575 16.769 89.7752L19.5673 88.3306L22.3655 89.7752C22.719 89.9575 23.1391 89.9575 23.4925 89.7752L26.2907 88.3306L29.089 89.7752C29.4425 89.9573 29.8624 89.9573 30.2159 89.7752L33.0144 88.3306L35.8126 89.7752C35.9893 89.8664 36.1828 89.9121 36.3762 89.9121C36.5695 89.9121 36.7629 89.8664 36.9397 89.7752L40.3015 88.0397C40.7099 87.8288 40.9664 87.4076 40.9664 86.9481V73.3368H45.298C47.5849 73.3368 49.4455 71.4762 49.4455 69.1891V63.4649C49.4459 62.7866 48.8958 62.2366 48.2175 62.2366ZM38.51 86.2L36.3765 87.3012L33.5783 85.8567C33.2246 85.6744 32.8047 85.6742 32.4513 85.8567L29.6529 87.3012L26.8546 85.8567C26.5011 85.6744 26.081 85.6744 25.7277 85.8567L22.9294 87.3012L20.1312 85.8567C19.7777 85.6744 19.3576 85.6744 19.0042 85.8567L16.206 87.3012L14.0723 86.2V73.3368H38.5103V86.2H38.51Z" fill="#213E60"/>
<path d="M42.8266 19.3934C43.505 19.3934 44.055 18.8434 44.055 18.1651V11.9586C44.055 11.2802 43.505 10.7302 42.8266 10.7302H9.7604C9.08206 10.7302 8.53204 11.2802 8.53204 11.9586V36.6947C8.53204 37.3732 9.08206 37.9231 9.7604 37.9231H32.761C33.4394 37.9231 33.9894 37.373 33.9894 36.6947C33.9894 36.0164 33.4394 35.4663 32.761 35.4663H10.9888V13.1869H41.5983V18.1651C41.5983 18.8434 42.1483 19.3934 42.8266 19.3934Z" fill="#94B6EF"/>
<path d="M17.8815 43.6771C17.8815 42.9986 17.3315 42.4487 16.6531 42.4487H9.7604C9.08206 42.4487 8.53204 42.9988 8.53204 43.6771V50.5747C8.53204 51.2533 9.08206 51.8031 9.7604 51.8031H16.6531C17.3315 51.8031 17.8815 51.2531 17.8815 50.5747V43.6771ZM15.425 49.3464H10.9888V44.9056H15.425V49.3464Z" fill="#213E60"/>
<path d="M30.8315 43.6771C30.8315 42.9986 30.2815 42.4487 29.6031 42.4487H22.7055C22.0271 42.4487 21.4771 42.9988 21.4771 43.6771V50.5747C21.4771 51.2533 22.0271 51.8031 22.7055 51.8031H29.6031C30.2815 51.8031 30.8315 51.2531 30.8315 50.5747V43.6771ZM28.3748 49.3464H23.9338V44.9056H28.3748V49.3464Z" fill="#213E60"/>
<path d="M35.6555 42.4487C34.9771 42.4487 34.4271 42.9988 34.4271 43.6771V50.5747C34.4271 51.2533 34.9771 51.8031 35.6555 51.8031H40.7728C41.4512 51.8031 42.0012 51.2531 42.0012 50.5747C42.0012 49.8964 41.4512 49.3464 40.7728 49.3464H36.8838V43.6771C36.8838 42.9988 36.3338 42.4487 35.6555 42.4487Z" fill="#213E60"/>
<path d="M16.6531 54.24H9.7604C9.08206 54.24 8.53204 54.79 8.53204 55.4684V62.3611C8.53204 63.0396 9.08206 63.5894 9.7604 63.5894H16.6531C17.3315 63.5894 17.8815 63.0394 17.8815 62.3611V55.4684C17.8815 54.7898 17.3317 54.24 16.6531 54.24ZM15.425 61.1325H10.9888V56.6967H15.425V61.1325Z" fill="#213E60"/>
<path d="M29.6031 54.24H22.7055C22.0271 54.24 21.4771 54.79 21.4771 55.4684V62.3611C21.4771 63.0396 22.0271 63.5894 22.7055 63.5894H29.6031C30.2815 63.5894 30.8315 63.0394 30.8315 62.3611V55.4684C30.8315 54.7898 30.2815 54.24 29.6031 54.24ZM28.3748 61.1325H23.9338V56.6967H28.3748V61.1325Z" fill="#F77A33"/>
<path d="M34.4271 62.3611C34.4271 63.0396 34.9771 63.5894 35.6555 63.5894H42.5482C43.2266 63.5894 43.7766 63.0394 43.7766 62.3611V55.4684C43.7766 54.7898 43.2266 54.24 42.5482 54.24H35.6555C34.9771 54.24 34.4271 54.79 34.4271 55.4684V62.3611ZM36.8838 56.6967H41.3199V61.1325H36.8838V56.6967Z" fill="#213E60"/>
<path d="M86.6988 69.9922L83.2359 63.9952L82.874 54.159C82.6945 49.3632 80.5437 45.3522 76.6543 42.5601L67.7659 36.1731L56.8044 17.1857C55.978 15.7608 54.1483 15.27 52.7256 16.0915L34.1462 26.8164C32.7271 27.6443 32.2397 29.4733 33.0599 30.8935L51.483 62.8106C52.0376 63.7616 53.0443 64.2942 54.0775 64.2942C54.5836 64.2942 55.0963 64.1664 55.5651 63.8973L60.7828 60.8846C60.9047 62.0054 61.2562 63.0978 61.8286 64.088C63.2825 66.6129 65.9812 68.1572 68.8605 68.1707L74.1078 77.2628C74.3352 77.6571 74.7481 77.8773 75.1728 77.8773C75.3811 77.8773 75.5922 77.8243 75.7858 77.7126C76.3734 77.3734 76.5747 76.6223 76.2356 76.0346L70.6159 66.2974C70.3756 65.8812 69.9142 65.6423 69.4357 65.6887C67.2173 65.8977 65.0675 64.7897 63.9564 62.8602C63.2723 61.6766 63.0353 60.2859 63.2891 58.9455C63.4375 58.1663 63.7418 57.4382 64.1937 56.781C64.462 56.3907 64.482 55.8808 64.2452 55.4707L60.0785 48.2557C59.5671 47.3684 59.8739 46.2288 60.7614 45.7161C61.6484 45.2051 62.7887 45.51 63.3011 46.3946L69.96 57.9371C70.2991 58.5247 71.0501 58.726 71.6379 58.3871C72.2255 58.0482 72.427 57.2969 72.088 56.7092L71.0696 54.9439L74.1345 53.175C75.5562 52.3543 76.0465 50.5253 75.2257 49.0949L70.7504 41.3428L75.221 44.5552C78.4714 46.8887 80.2689 50.2414 80.4188 54.2501L80.7919 64.3904C80.7992 64.5904 80.8555 64.786 80.9557 64.9594L84.5712 71.2205C84.7986 71.6146 85.2115 71.8349 85.636 71.8349C85.8445 71.8349 86.0556 71.7818 86.2492 71.67C86.8368 71.3309 87.0381 70.5798 86.6988 69.9922ZM72.9067 51.0475L69.8421 52.816L65.4279 45.1646C64.2362 43.1089 61.5927 42.4015 59.5336 43.5881C57.4732 44.7784 56.7629 47.4225 57.9505 49.4832L61.7512 56.0641C61.4262 56.6502 61.1775 57.2707 61.0059 57.919L54.3396 61.7681C54.0833 61.9154 53.7539 61.8276 53.608 61.5777L35.1875 29.6653C35.0443 29.4171 35.1343 29.0843 35.3793 28.9413L53.9539 18.2191C54.2055 18.0738 54.5312 18.1629 54.678 18.416L73.0969 50.3208C73.241 50.572 73.1538 50.9048 72.9067 51.0475Z" fill="#F77A33"/>
<path d="M42.3684 30.2068C42.0289 29.6197 41.2776 29.419 40.6902 29.7582C40.1029 30.0978 39.902 30.8493 40.2416 31.4366L43.0017 36.2105C43.2293 36.6044 43.6419 36.8243 44.0662 36.8243C44.2749 36.8243 44.4863 36.771 44.6799 36.6591C45.2672 36.3194 45.4681 35.568 45.1285 34.9807L42.3684 30.2068Z" fill="#F77A33"/>
<path d="M30.4487 20.9051C31.127 20.9051 31.677 20.3551 31.677 19.6768C31.677 18.9984 31.127 18.4484 30.4487 18.4484H27.5194V17.3443C27.5194 16.666 26.9694 16.116 26.2911 16.116C25.6127 16.116 25.0627 16.666 25.0627 17.3443V18.4484H24.461C22.5004 18.4484 20.9052 20.0412 20.9052 21.9992C20.9052 23.9599 22.5004 25.5549 24.461 25.5549H25.0627V27.753H22.1335C21.4552 27.753 20.9052 28.3031 20.9052 28.9814C20.9052 29.6599 21.4552 30.2098 22.1335 30.2098H25.0627V31.3087C25.0627 31.9873 25.6127 32.5371 26.2911 32.5371C26.9694 32.5371 27.5194 31.9871 27.5194 31.3087V30.2098H28.1213C30.082 30.2098 31.677 28.6145 31.677 26.6539C31.677 24.6932 30.082 23.0982 28.1213 23.0982H27.5194V20.905L30.4487 20.9051ZM29.2203 26.6541C29.2203 27.2601 28.7272 27.7532 28.1213 27.7532H27.5194V25.5551H28.1213C28.7272 25.5551 29.2203 26.0481 29.2203 26.6541ZM25.0627 23.0984H24.461C23.8549 23.0984 23.3619 22.6053 23.3619 21.9994C23.3619 21.3961 23.8549 20.9053 24.461 20.9053H25.0627V23.0984Z" fill="#213E60"/>
</svg>
