<svg width="90" height="90" viewBox="0 0 90 90" fill="none" xmlns="http://www.w3.org/2000/svg">
<path d="M30.3131 47.688H22.1624C21.4841 47.688 20.9341 48.238 20.9341 48.9163C20.9341 49.5947 21.4841 50.1447 22.1624 50.1447H30.3131C30.9914 50.1447 31.5414 49.5947 31.5414 48.9163C31.5414 48.2378 30.9916 47.688 30.3131 47.688Z" fill="#94B6EF"/>
<path d="M30.3131 42.0933H22.1624C21.4841 42.0933 20.9341 42.6433 20.9341 43.3216C20.9341 44.0001 21.4841 44.55 22.1624 44.55H30.3131C30.9914 44.55 31.5414 44 31.5414 43.3216C31.5414 42.6433 30.9916 42.0933 30.3131 42.0933Z" fill="#94B6EF"/>
<path d="M68.5698 63.6262H45.2916H32.377H4.40438C3.37887 63.6262 2.54443 62.7919 2.54443 61.7662V55.5353H46.3359C47.0143 55.5353 47.5643 54.9853 47.5643 54.307C47.5643 53.6284 47.0145 53.0786 46.3359 53.0786H2.54443V11.9526C2.54443 10.9271 3.37887 10.0927 4.40438 10.0927H73.2642C74.2897 10.0927 75.1242 10.927 75.1242 11.9526V21.3315C75.1242 22.01 75.6742 22.5598 76.3525 22.5598C77.0309 22.5598 77.5809 22.0098 77.5809 21.3315V11.9526C77.5809 9.57239 75.6445 7.63599 73.2644 7.63599H4.40438C2.0243 7.63599 0.0878906 9.57239 0.0878906 11.9526V61.7662C0.0878906 64.1465 2.0243 66.0829 4.40438 66.0829H31.1488V73.1493H23.9231C23.2448 73.1493 22.6948 73.6991 22.6948 74.3777V81.1357C22.6948 81.8141 23.2448 82.3641 23.9231 82.3641H53.7456C54.424 82.3641 54.974 81.8141 54.974 81.1357V74.3777C54.974 73.6991 54.424 73.1493 53.7456 73.1493H46.52V66.0829H68.5698C69.2481 66.0829 69.7982 65.5331 69.7982 64.8545C69.7982 64.176 69.2481 63.6262 68.5698 63.6262ZM33.6052 66.0829H44.0633V73.1493H33.6052V66.0829ZM52.5173 75.606V79.9074H25.1513V75.606H32.377H45.2916H52.5173Z" fill="#213E60"/>
<path d="M89.1125 71.3119L82.6248 60.0728C82.1463 59.2528 81.085 58.9696 80.2535 59.4443L80.1041 59.5306L77.6839 55.3357C84.3162 49.3298 86.1142 39.2927 81.4641 31.24C76.1125 21.9724 64.217 18.7834 54.947 24.1316C54.9468 24.1316 54.9466 24.1317 54.9465 24.1317C45.6772 29.4844 42.4906 41.3804 47.8433 50.6494C51.4354 56.8698 57.9753 60.3515 64.6911 60.3515C66.669 60.3515 68.6618 60.047 70.5993 59.4239L73.0233 63.6198L72.8784 63.7034C72.4719 63.936 72.1825 64.3143 72.0639 64.7687C71.948 65.2127 72.0096 65.6769 72.2404 66.0805L78.724 77.3075C79.5198 78.6904 80.812 79.6814 82.3625 80.0977C82.8837 80.2376 83.412 80.3068 83.9365 80.3068C84.9746 80.3068 85.9977 80.0354 86.9176 79.5041C89.777 77.8524 90.7619 74.1781 89.1125 71.3119ZM49.9706 49.421C45.2954 41.3249 48.0787 30.9346 56.175 26.2592L56.1746 26.2594C64.2715 21.5882 74.6621 24.3734 79.3368 32.4685C84.0108 40.5625 81.2275 50.9531 73.133 55.6301C65.0358 60.3014 54.6454 57.5159 49.9706 49.421ZM72.9101 58.5128C73.3996 58.2825 73.8843 58.0327 74.3612 57.7575C74.837 57.4825 75.296 57.1893 75.7394 56.8812L77.9768 60.7593L75.1509 62.3912L72.9101 58.5128ZM85.6888 77.3769C84.873 77.8482 83.9182 77.9718 82.9999 77.7252C82.0839 77.4791 81.3216 76.8956 80.8524 76.0805L74.7266 65.4732L80.8607 61.9307L86.9842 72.5387C87.9582 74.2311 87.377 76.4017 85.6888 77.3769Z" fill="#F77A33"/>
<path d="M78.8591 44.7511C79.8757 40.9566 79.3543 36.9937 77.391 33.5922C75.4256 30.1885 72.2536 27.7543 68.4599 26.7378C64.666 25.7216 60.702 26.2442 57.2987 28.2093C53.8976 30.1722 51.4647 33.3433 50.4479 37.1382C49.4314 40.9328 49.9526 44.8956 51.9159 48.2972C53.8813 51.7008 57.0533 54.1351 60.847 55.1516C62.1133 55.4909 63.3979 55.6586 64.6748 55.6586C67.2238 55.6586 69.7406 54.9895 72.0082 53.6801C75.4094 51.717 77.8424 48.5461 78.8591 44.7511ZM70.78 51.5525C67.9449 53.1899 64.643 53.6253 61.483 52.7785C58.3228 51.9318 55.6808 49.9042 54.0435 47.069C52.4084 44.2359 51.9742 40.9349 52.821 37.774C53.6679 34.6131 55.6943 31.9718 58.5268 30.3371C58.5268 30.3369 58.527 30.3369 58.527 30.3369C60.4517 29.2256 62.5554 28.6974 64.6328 28.6974C68.87 28.6974 72.9966 30.8948 75.2637 34.8204C76.8988 37.6535 77.333 40.9544 76.4862 44.1153C75.6393 47.2762 73.6129 49.9175 70.78 51.5525Z" fill="#F77A33"/>
<path d="M69.0372 35.9221C69.7156 35.9221 70.2656 35.3721 70.2656 34.6938C70.2656 34.0152 69.7156 33.4654 69.0372 33.4654H65.8793V32.088C65.8793 31.4096 65.3295 30.8596 64.6512 30.8596C63.9728 30.8596 63.4228 31.4096 63.4228 32.088V33.4939C60.9613 33.7389 59.0416 35.5858 59.0416 37.8218C59.0416 40.0551 60.9612 41.9001 63.4228 42.1448V45.9675H60.3296C59.6512 45.9675 59.1012 46.5175 59.1012 47.1958C59.1012 47.8742 59.6511 48.4242 60.3296 48.4242H63.4228V49.8016C63.4228 50.48 63.9728 51.03 64.6512 51.03C65.3295 51.03 65.8793 50.48 65.8793 49.8016V48.3963C68.3433 48.1533 70.2654 46.3053 70.2654 44.0678C70.2654 41.8329 68.3433 39.9871 65.8793 39.7443V35.9221H69.0372ZM63.423 39.6642C62.3358 39.465 61.4985 38.703 61.4985 37.8218C61.4985 36.9381 62.3359 36.1742 63.423 35.9745V39.6642ZM67.8091 44.0678C67.8091 44.9527 66.9692 45.7179 65.8795 45.916V42.2244C66.9692 42.4222 67.8091 43.1852 67.8091 44.0678Z" fill="#F77A33"/>
<path d="M7.75619 39.0103H14.5292C15.2076 39.0103 15.7576 38.4603 15.7576 37.782V20.8094C15.7576 20.1309 15.2076 19.5811 14.5292 19.5811H7.75619C7.07785 19.5811 6.52783 20.1311 6.52783 20.8094V37.782C6.52783 38.4603 7.07768 39.0103 7.75619 39.0103ZM8.98437 22.0378H13.3009V36.5534H8.98437V22.0378Z" fill="#213E60"/>
<path d="M27.2052 37.782V28.5721C27.2052 27.8938 26.6553 27.3438 25.9768 27.3438H19.1987C18.5204 27.3438 17.9703 27.8938 17.9703 28.5721V37.782C17.9703 38.4605 18.5204 39.0104 19.1987 39.0104H25.9768C26.6552 39.0104 27.2052 38.4603 27.2052 37.782ZM24.7486 36.5536H20.4272V29.8005H24.7486V36.5536Z" fill="#F77A33"/>
<path d="M15.9066 47.6877H7.75619C7.07785 47.6877 6.52783 48.2378 6.52783 48.9161C6.52783 49.5944 7.07785 50.1445 7.75619 50.1445H15.9068C16.5852 50.1445 17.1352 49.5944 17.1352 48.9161C17.135 48.2376 16.5852 47.6877 15.9066 47.6877Z" fill="#94B6EF"/>
<path d="M38.6527 37.7819V15.0855C38.6527 14.4072 38.1028 13.8572 37.4243 13.8572H30.6462C29.9679 13.8572 29.4178 14.4072 29.4178 15.0855V37.7819C29.4178 38.4604 29.9679 39.0102 30.6462 39.0102H37.4243C38.1028 39.0102 38.6527 38.4602 38.6527 37.7819ZM36.1961 36.5535H31.8746V16.3139H36.1961V36.5535Z" fill="#213E60"/>
<path d="M15.9066 42.0933H7.75619C7.07785 42.0933 6.52783 42.6433 6.52783 43.3216C6.52783 44.0001 7.07785 44.55 7.75619 44.55H15.9068C16.5852 44.55 17.1352 44 17.1352 43.3216C17.135 42.6433 16.5852 42.0933 15.9066 42.0933Z" fill="#94B6EF"/>
</svg>
