<svg width="90" height="90" viewBox="0 0 90 90" fill="none" xmlns="http://www.w3.org/2000/svg">
<path d="M42.7819 14.2364C42.7819 13.5579 42.2321 13.008 41.5536 13.008C40.8752 13.008 40.3252 13.558 40.3252 14.2364C40.3252 15.9207 41.8628 17.2934 43.7716 17.3401V18.0408C43.7716 18.7193 44.3214 19.2692 44.9999 19.2692C45.6784 19.2692 46.2283 18.7191 46.2283 18.0408V17.299C48.1765 17.0271 49.6695 15.5568 49.6695 13.7888C49.6695 12.0208 48.1763 10.5504 46.2283 10.2785V8.04254C46.831 8.08121 47.2128 8.43541 47.2128 8.68643C47.2128 9.36494 47.7627 9.91478 48.4412 9.91478C49.1197 9.91478 49.6695 9.36477 49.6695 8.68643C49.6695 7.0035 48.135 5.63188 46.2283 5.58283V4.88217C46.2283 4.20365 45.6784 3.65381 44.9999 3.65381C44.3214 3.65381 43.7716 4.20383 43.7716 4.88217V5.62361C41.8206 5.89537 40.3252 7.36578 40.3252 9.13414C40.3252 10.5327 41.031 11.613 42.3122 12.1757C42.7334 12.3608 43.2091 12.4919 43.7716 12.5758V14.8806C43.1658 14.8437 42.7819 14.4881 42.7819 14.2364ZM46.2283 12.7855C46.8302 12.9711 47.2128 13.3967 47.2128 13.7888C47.2128 14.181 46.8302 14.6066 46.2283 14.792V12.7855ZM42.7819 9.13397C42.7819 8.74145 43.1667 8.31535 43.7716 8.13008V10.0798C42.7833 9.85344 42.7819 9.42471 42.7819 9.13397Z" fill="#94B6EF"/>
<path d="M76.9173 55.5378C76.2389 55.5378 75.6889 56.0879 75.6889 56.7662C75.6889 64.1919 73.0374 71.0094 68.6323 76.3233C65.7525 74.9596 62.3603 73.8694 58.6552 73.094C59.9465 68.177 60.6355 62.5846 60.6355 56.7662C60.6355 56.0877 60.0855 55.5378 59.4072 55.5378C58.7286 55.5378 58.1786 56.0879 58.1786 56.7662C58.1786 62.5243 57.4553 67.9723 56.2134 72.6361C52.6535 72.0437 48.8624 71.7301 45.0001 71.7301C41.1384 71.7301 37.3471 72.0437 33.7867 72.6361C32.545 67.9724 31.8215 62.5243 31.8215 56.7662C31.8215 56.0877 31.2714 55.5378 30.5929 55.5378C29.9146 55.5378 29.3646 56.0879 29.3646 56.7662C29.3646 62.5846 30.0536 68.177 31.3451 73.0942C27.6393 73.8694 24.2456 74.9596 21.3639 76.3233C16.9581 71.0094 14.3063 64.1917 14.3063 56.7662C14.3063 56.0877 13.7562 55.5378 13.0779 55.5378C12.3994 55.5378 11.8494 56.0879 11.8494 56.7662C11.8494 65.0752 14.9238 72.6795 19.994 78.503C20.0685 78.6223 20.1608 78.725 20.2658 78.8092C26.3413 85.6174 35.1778 89.912 44.9999 89.912C54.8203 89.912 63.6553 85.6175 69.7301 78.8099C69.8308 78.729 69.918 78.6293 69.9908 78.516C75.0672 72.6908 78.1458 65.0815 78.1458 56.7662C78.1458 56.0877 77.5958 55.5378 76.9173 55.5378ZM23.0888 78.2338C25.7011 77.071 28.7317 76.1348 32.0276 75.4572C32.5195 77.006 33.0753 78.4733 33.693 79.8414C34.9887 82.7117 36.4964 85.0109 38.1517 86.6843C32.3289 85.3526 27.133 82.3596 23.0888 78.2338ZM44.9999 87.4551C40.7612 87.4551 36.9128 82.5069 34.4838 75.0075C37.821 74.4705 41.3745 74.187 44.9999 74.187C48.6261 74.187 52.1794 74.4705 55.5161 75.0075C53.0869 82.5069 49.2387 87.4551 44.9999 87.4551ZM51.8486 86.684C53.5037 85.0106 55.0112 82.7113 56.3069 79.8414C56.9246 78.4731 57.4804 77.006 57.9723 75.4572C61.2676 76.1348 64.2969 77.0712 66.9076 78.234C62.8641 82.3594 57.6697 85.3521 51.8486 86.684Z" fill="#213E60"/>
<path d="M77.2903 17.2103H75.183C76.3868 15.8828 77.1212 14.1219 77.1212 12.1925C77.1212 8.07375 73.7703 4.72266 69.6515 4.72266C65.5302 4.72266 62.177 8.07375 62.177 12.1925C62.177 14.1219 62.9119 15.8828 64.1165 17.2103H62.7539C61.0509 17.2103 59.5265 18.0908 58.6765 19.5651L53.7249 28.1413H49.3862C47.305 28.1413 45.6117 29.8346 45.6117 31.9158C45.6117 33.9971 47.305 35.6906 49.3862 35.6906H56.0403C57.4869 35.6906 58.7387 34.9778 59.4727 33.738L61.6995 29.9988V50.5003C61.6995 53.0314 63.7586 55.0905 66.2897 55.0905C67.6162 55.0905 68.8129 54.5252 69.6517 53.6225C70.4905 54.5252 71.6871 55.0905 73.0135 55.0905C75.5418 55.0905 77.5988 53.0312 77.5988 50.5003V41.2155V36.0534C78.0606 36.2423 78.5659 36.3469 79.0956 36.3469C81.273 36.3469 83.0443 34.5756 83.0443 32.3984V22.9642C83.0443 19.7915 80.463 17.2103 77.2903 17.2103ZM69.6517 7.17955C72.4159 7.17955 74.6645 9.42814 74.6645 12.1925C74.6645 14.9595 72.4159 17.2103 69.6517 17.2103C66.8847 17.2103 64.6339 14.9595 64.6339 12.1925C64.6339 9.42832 66.8847 7.17955 69.6517 7.17955ZM80.5874 32.3982C80.5874 33.2207 79.9182 33.8899 79.0905 33.8899C78.268 33.8899 77.5988 33.2207 77.5988 32.3982V25.5353C77.5988 24.8568 77.0489 24.307 76.3704 24.307C75.6919 24.307 75.1421 24.857 75.1421 25.5353V32.3982V41.2154V50.5001C75.1421 51.6765 74.1872 52.6336 73.0137 52.6336C71.8374 52.6336 70.8802 51.6765 70.8802 50.5001V42.0658C70.8802 41.3873 70.3304 40.8374 69.6519 40.8374C68.9735 40.8374 68.4235 41.3875 68.4235 42.0658V50.5001C68.4235 51.6765 67.4666 52.6336 66.2899 52.6336C65.1136 52.6336 64.1566 51.6765 64.1566 50.5001V25.5353C64.1566 24.9825 63.7871 24.4977 63.254 24.3509C62.7208 24.205 62.1553 24.4318 61.8729 24.9069L57.3607 32.4836C57.0702 32.9742 56.6137 33.2337 56.0404 33.2337H49.3864C48.6597 33.2337 48.0686 32.6425 48.0686 31.9158C48.0686 31.1892 48.6597 30.5982 49.3864 30.5982H54.4342C54.8729 30.5982 55.2784 30.364 55.498 29.984L60.8045 20.7931C61.223 20.067 61.9156 19.6672 62.7541 19.6672H77.2905C79.1084 19.6672 80.5874 21.1463 80.5874 22.9644V32.3982Z" fill="#213E60"/>
<path d="M12.3962 41.2155V50.5003C12.3962 53.0314 14.4553 55.0905 16.9864 55.0905C18.3129 55.0905 19.5094 54.5252 20.3482 53.6225C21.1871 54.5252 22.3836 55.0905 23.71 55.0905C26.2383 55.0905 28.2953 53.0312 28.2953 50.5003V29.9984L30.5205 33.735C31.2562 34.9776 32.5077 35.6904 33.9546 35.6904H40.6135C42.6948 35.6904 44.3883 33.9969 44.3883 31.9157C44.3883 29.8344 42.6948 28.1411 40.6135 28.1411H36.2751L31.3216 19.5621C30.4534 18.0676 28.9657 17.2103 27.2408 17.2103H25.8795C27.0833 15.8828 27.8179 14.1219 27.8179 12.1925C27.8179 8.07375 24.4668 4.72266 20.3481 4.72266C16.2265 4.72266 12.8735 8.07375 12.8735 12.1925C12.8735 14.1219 13.6086 15.8828 14.8129 17.2103H12.7097C9.53698 17.2103 6.95581 19.7915 6.95581 22.9642V32.3982C6.95581 34.5754 8.72716 36.3468 10.9044 36.3468C11.4319 36.3468 11.936 36.2425 12.3962 36.0541V41.2155ZM20.3482 7.17955C23.1124 7.17955 25.3612 9.42814 25.3612 12.1925C25.3612 14.9595 23.1126 17.2103 20.3482 17.2103C17.5814 17.2103 15.3306 14.9595 15.3306 12.1925C15.3306 9.42832 17.5816 7.17955 20.3482 7.17955ZM10.9044 33.89C10.0819 33.89 9.41271 33.2208 9.41271 32.3984V22.9642C9.41271 21.1462 10.8917 19.6671 12.7097 19.6671H27.241C28.0796 19.6671 28.7745 20.068 29.1958 20.7933L34.5023 29.9837C34.7219 30.3637 35.1274 30.5978 35.5661 30.5978H40.6137C41.3281 30.5978 41.9317 31.2013 41.9317 31.9155C41.9317 32.6423 41.3406 33.2333 40.6137 33.2333H33.9548C33.3817 33.2333 32.9254 32.974 32.6331 32.4804L28.1223 24.9064C27.8395 24.4314 27.2745 24.2047 26.7412 24.3506C26.2081 24.4973 25.8386 24.9821 25.8386 25.535V50.5003C25.8386 51.6766 24.8837 52.6338 23.7102 52.6338C22.5339 52.6338 21.5768 51.6766 21.5768 50.5003V42.066C21.5768 41.3875 21.0267 40.8376 20.3484 40.8376C19.6699 40.8376 19.12 41.3876 19.12 42.066V50.5003C19.12 51.6766 18.1629 52.6338 16.9866 52.6338C15.8103 52.6338 14.8531 51.6766 14.8531 50.5003V41.2155V32.3984V25.5355C14.8531 24.857 14.3033 24.3071 13.6248 24.3071C12.9463 24.3071 12.3964 24.8572 12.3964 25.5355V32.3984C12.3962 33.2208 11.727 33.89 10.9044 33.89Z" fill="#F77A33"/>
<path d="M44.9999 22.8349C51.2713 22.8349 56.3733 17.7326 56.3733 11.4613C56.3733 5.19012 51.2713 0.0878906 44.9999 0.0878906C38.7284 0.0878906 33.6263 5.19012 33.6263 11.4613C33.6263 17.7328 38.7284 22.8349 44.9999 22.8349ZM44.9999 2.54479C49.9165 2.54479 53.9166 6.54486 53.9166 11.4615C53.9166 16.3782 49.9165 20.3783 44.9999 20.3783C40.0831 20.3783 36.0831 16.3784 36.0831 11.4615C36.0831 6.54469 40.0831 2.54479 44.9999 2.54479Z" fill="#94B6EF"/>
</svg>
