<svg width="90" height="90" viewBox="0 0 90 90" fill="none" xmlns="http://www.w3.org/2000/svg">
<g clip-path="url(#clip0_2516_2092)">
<path d="M81.1225 0.0878906C80.6778 0.0878906 80.242 0.126563 79.817 0.197402H19.0468C14.9885 0.197402 11.687 3.49682 11.687 7.55227V60.7764H2.18901C1.51067 60.7764 0.960648 61.3264 0.960648 62.0046V83.318C0.960648 86.9541 3.91869 89.9119 7.55455 89.9119H7.55789H7.55948H68.3026C72.3521 89.9119 75.6515 86.6155 75.6575 82.5639C75.6584 81.8856 75.1092 81.3349 74.4311 81.3338C74.4304 81.3338 74.4296 81.3338 74.4291 81.3338C73.7515 81.3338 73.2018 81.8826 73.2008 82.5602C73.1969 85.2594 70.9995 87.4554 68.3026 87.4554H12.68C13.5944 86.3232 14.1437 84.8839 14.1437 83.318V76.0577V62.0046V7.55209C14.1437 4.85121 16.3433 2.65377 19.0468 2.65377H75.2917C73.9944 4.06494 73.2008 5.94598 73.2008 8.00947V15.3793V31.9836V43.5354C73.2008 44.2137 73.7508 44.7636 74.4291 44.7636C75.1075 44.7636 75.6575 44.2136 75.6575 43.5354V33.2118H87.811C88.4893 33.2118 89.0394 32.6617 89.0394 31.9834V8.00965C89.0394 3.64148 85.4879 0.0878906 81.1225 0.0878906ZM3.41737 83.3182V63.2329H11.687V76.0579V83.3182C11.687 85.5995 9.83338 87.4556 7.55455 87.4556C5.27326 87.4556 3.41737 85.5995 3.41737 83.3182ZM86.5826 30.7554H75.6575V15.3795V8.00965C75.6575 5.35078 77.5663 3.13049 80.0854 2.64445C80.1315 2.639 80.1765 2.63057 80.2209 2.6202C80.5145 2.57115 80.8154 2.54443 81.1225 2.54443C84.1333 2.54443 86.5826 4.99606 86.5826 8.00965V30.7554Z" fill="#213E60"/>
<path d="M22.284 22.6049C21.6056 22.6049 21.0556 23.1548 21.0556 23.8331C21.0556 24.5114 21.6056 25.0613 22.284 25.0613H26.4662V26.8615C26.4662 27.5398 27.0162 28.0896 27.6945 28.0896C28.3728 28.0896 28.9229 27.5396 28.9229 26.8615V25.0613H30.0765C32.4209 25.0613 34.3283 23.1541 34.3283 20.8095C34.3283 18.4623 32.4209 16.5528 30.0765 16.5528H28.9229V12.9575H33.1C33.7783 12.9575 34.3283 12.4075 34.3283 11.7293C34.3283 11.051 33.7783 10.5012 33.1 10.5012H28.9229V8.70572C28.9229 8.02738 28.3728 7.47754 27.6945 7.47754C27.0162 7.47754 26.4662 8.02756 26.4662 8.70572V10.501H25.3125C22.9653 10.501 21.0556 12.4105 21.0556 14.7577C21.0556 17.1023 22.9653 19.0095 25.3125 19.0095H26.4662V22.6049H22.284ZM25.3125 16.5529C24.3199 16.5529 23.5123 15.7475 23.5123 14.7577C23.5123 13.7651 24.3199 12.9575 25.3125 12.9575H26.4662V16.5529H25.3125ZM28.9229 19.0095H30.0765C31.0663 19.0095 31.8716 19.817 31.8716 20.8097C31.8716 21.7995 31.0663 22.6049 30.0765 22.6049H28.9229V19.0095Z" fill="#F77A33"/>
<path d="M43.7964 12.6143H65.0603C65.7387 12.6143 66.2887 12.0643 66.2887 11.3861C66.2887 10.7078 65.7387 10.158 65.0603 10.158H43.7964C43.1181 10.158 42.5681 10.708 42.5681 11.3861C42.5681 12.0645 43.1181 12.6143 43.7964 12.6143Z" fill="#94B6EF"/>
<path d="M43.7964 18.9298H65.0603C65.7387 18.9298 66.2887 18.3797 66.2887 17.7016C66.2887 17.0232 65.7387 16.4734 65.0603 16.4734H43.7964C43.1181 16.4734 42.5681 17.0234 42.5681 17.7016C42.5681 18.3799 43.1181 18.9298 43.7964 18.9298Z" fill="#94B6EF"/>
<path d="M43.7964 25.2454H65.0603C65.7387 25.2454 66.2887 24.6953 66.2887 24.0172C66.2887 23.3388 65.7387 22.7888 65.0603 22.7888H43.7964C43.1181 22.7888 42.5681 23.3388 42.5681 24.0172C42.5681 24.6953 43.1181 25.2454 43.7964 25.2454Z" fill="#94B6EF"/>
<path d="M20.3943 35.1759C20.3943 35.8543 20.9443 36.4041 21.6227 36.4041H64.3939C65.0723 36.4041 65.6223 35.8541 65.6223 35.1759C65.6223 34.4978 65.0723 33.9478 64.3939 33.9478H21.6227C20.9443 33.9478 20.3943 34.4978 20.3943 35.1759Z" fill="#213E60"/>
<path d="M65.6223 42.1481C65.6223 41.4698 65.0723 40.9199 64.3939 40.9199H21.6227C20.9443 40.9199 20.3943 41.4699 20.3943 42.1481C20.3943 42.8264 20.9443 43.3765 21.6227 43.3765H64.3939C65.0725 43.3763 65.6223 42.8264 65.6223 42.1481Z" fill="#213E60"/>
<path d="M32.5978 47.8967H21.6227C20.9443 47.8967 20.3943 48.4467 20.3943 49.1249C20.3943 49.8031 20.9443 50.3531 21.6227 50.3531H32.5978C33.2761 50.3531 33.8261 49.8031 33.8261 49.1249C33.8261 48.4467 33.2761 47.8967 32.5978 47.8967Z" fill="#213E60"/>
<path d="M32.5978 54.8684H21.6227C20.9443 54.8684 20.3943 55.4184 20.3943 56.0966C20.3943 56.7748 20.9443 57.3248 21.6227 57.3248H32.5978C33.2761 57.3248 33.8261 56.7748 33.8261 56.0966C33.8261 55.4184 33.2761 54.8684 32.5978 54.8684Z" fill="#213E60"/>
<path d="M32.5978 61.8406H21.6227C20.9443 61.8406 20.3943 62.3906 20.3943 63.0688C20.3943 63.7469 20.9443 64.297 21.6227 64.297H32.5978C33.2761 64.297 33.8261 63.7469 33.8261 63.0688C33.8261 62.3906 33.2761 61.8406 32.5978 61.8406Z" fill="#213E60"/>
<path d="M84.6981 46.6934H40.0968C37.7032 46.6934 35.7555 48.6431 35.7555 51.0396V75.0583C35.7555 77.4549 37.703 79.4045 40.0968 79.4045H84.6983C87.0919 79.4045 89.0395 77.4547 89.0395 75.0583V51.0396C89.0394 48.643 87.0919 46.6934 84.6981 46.6934ZM40.0968 49.1499H84.6983C85.7375 49.1499 86.5828 49.9977 86.5828 51.0396V53.4166H38.2122V51.0396C38.2122 49.9977 39.0575 49.1499 40.0968 49.1499ZM86.5826 55.8732V58.4988H38.2122V55.8732H86.5826ZM84.6981 76.9481H40.0968C39.0575 76.9481 38.2122 76.1003 38.2122 75.0585V60.9556H86.5826V75.0585C86.5826 76.1003 85.7373 76.9481 84.6981 76.9481Z" fill="#F77A33"/>
<path d="M83.395 65.1423H75.9509C75.2725 65.1423 74.7225 65.6924 74.7225 66.3705V73.8099C74.7225 74.4883 75.2725 75.0381 75.9509 75.0381H83.395C84.0734 75.0381 84.6234 74.4881 84.6234 73.8099V66.3705C84.6234 65.6924 84.0735 65.1423 83.395 65.1423ZM82.1668 72.5817H77.1794V67.5989H82.1668V72.5817Z" fill="#F77A33"/>
</g>
<defs>
<clipPath id="clip0_2516_2092">
<rect width="90" height="90" fill="white"/>
</clipPath>
</defs>
</svg>
