<svg width="90" height="90" viewBox="0 0 90 90" fill="none" xmlns="http://www.w3.org/2000/svg">
<path d="M85.9686 11.3047H38.4434C36.2689 11.3047 34.4999 13.074 34.4999 15.2484V31.5138C32.2436 28.4975 28.643 26.5416 24.5939 26.5416H12.4504C5.63379 26.5416 0.0878906 32.0852 0.0878906 38.8992V62.7786C0.0878906 65.3067 2.14682 67.3637 4.67771 67.3637C5.44535 67.3637 6.16975 67.1738 6.80625 66.8389V86.374C6.80625 87.0524 7.35627 87.6024 8.03443 87.6024C8.7126 87.6024 9.26262 87.0524 9.26262 86.374V62.7788V56.7368H27.7813V86.374C27.7813 87.0524 28.3314 87.6024 29.0095 87.6024C29.6877 87.6024 30.2377 87.0524 30.2377 86.374V53.3855C30.7311 53.8324 31.2957 54.2164 31.9289 54.5056C33.2779 55.1215 36.0267 55.7333 39.2825 52.9106C40.1653 52.1447 41.0618 51.3143 41.9467 50.4611H47.9907V48.0043H44.412C45.9411 46.436 47.35 44.9194 48.4787 43.7035C49.3407 42.7748 50.0217 42.0411 50.4654 41.5976C51.3311 40.7319 51.8073 39.5779 51.8061 38.3481C51.805 37.1558 51.3548 36.0363 50.5362 35.1837C50.5139 35.157 50.4902 35.1314 50.4654 35.1064C48.6805 33.3215 45.7717 33.321 43.9791 35.1067L36.9559 42.1336V38.899V15.2482C36.9559 14.4282 37.623 13.7613 38.4428 13.7613H85.9683C86.7881 13.7613 87.4552 14.4282 87.4552 15.2482V46.5223C87.4552 47.3394 86.7881 48.004 85.9683 48.004H81.7611V50.4607H85.9683C88.1427 50.4607 89.9118 48.6939 89.9118 46.5223V15.2482C89.9121 13.0738 88.1432 11.3047 85.9686 11.3047ZM21.8943 28.9982L18.5222 34.8369L15.1501 28.9982H21.8943ZM45.7153 36.845C46.5311 36.0322 47.8448 36.0152 48.6772 36.7935C48.6942 36.8129 48.7121 36.8317 48.7306 36.8501C49.1295 37.2476 49.3495 37.7804 49.3501 38.3506C49.3506 38.9231 49.13 39.4594 48.7288 39.8606C48.253 40.3364 47.5583 41.0847 46.6789 42.032C44.379 44.5093 40.9034 48.2529 37.6736 51.0545C35.9826 52.5205 34.3932 52.9299 32.9497 52.2705C31.3277 51.5302 30.2382 49.5517 30.2382 48.1685V46.4726C30.2382 45.7942 29.6882 45.2442 29.0101 45.2442C28.3319 45.2442 27.7819 45.7942 27.7819 46.4726V48.1685V53.2904V54.2799H9.26279V46.4724C9.26279 45.7941 8.71277 45.244 8.03461 45.244C7.35644 45.244 6.80643 45.7941 6.80643 46.4724V62.7784C6.80643 63.9519 5.85158 64.9068 4.67789 64.9068C3.50156 64.9068 2.54461 63.9519 2.54461 62.7784V38.8989C2.54461 33.4848 6.91558 29.0743 12.3154 29.0015L17.4588 37.9069C17.6781 38.287 18.0837 38.5209 18.5224 38.5209C18.9612 38.5209 19.3665 38.2868 19.5861 37.9069L24.7294 29.0015C30.1293 29.0745 34.5002 33.4848 34.5002 38.8989V45.0999C34.5002 45.5967 34.7996 46.0447 35.2586 46.2347C35.7177 46.4249 36.2461 46.3198 36.5973 45.9681L45.7153 36.845ZM58.9862 48.004H70.7618V50.4607H58.9862V48.004ZM18.5222 25.0498C24.7001 25.0498 29.726 20.0237 29.726 13.8458C29.726 7.6708 24.7001 2.64697 18.5222 2.64697C12.3472 2.64697 7.3234 7.67098 7.3234 13.8458C7.3234 20.0237 12.3471 25.0498 18.5222 25.0498ZM18.5222 5.10352C23.3455 5.10352 27.2695 9.0252 27.2695 13.8458C27.2695 18.6691 23.3455 22.593 18.5222 22.593C13.7018 22.593 9.77994 18.6691 9.77994 13.8458C9.77994 9.0252 13.7018 5.10352 18.5222 5.10352ZM19.7504 62.6791V86.3737C19.7504 87.052 19.2004 87.6021 18.5222 87.6021C17.8439 87.6021 17.2941 87.052 17.2941 86.3737V62.6791C17.2941 62.0007 17.8441 61.4507 18.5222 61.4507C19.2006 61.4507 19.7504 62.0006 19.7504 62.6791Z" fill="#213E60"/>
<path d="M65.5397 21.8285L53.0126 32.4558C52.7818 32.6518 52.4995 32.7476 52.2186 32.7476C51.8704 32.7476 51.5243 32.6003 51.2813 32.3138C50.8424 31.7967 50.906 31.0215 51.4234 30.5827L64.8699 19.175C65.3806 18.7416 66.144 18.7975 66.5864 19.3L70.9876 24.2998L77.581 17.7062C78.0606 17.2265 78.8384 17.2265 79.3181 17.7062C79.7978 18.1859 79.7978 18.9638 79.3181 19.4435L71.7992 26.9625C71.5595 27.2023 71.2334 27.3339 70.8917 27.3216C70.5526 27.3109 70.233 27.1603 70.0087 26.9056L65.5397 21.8285Z" fill="#F77A33"/>
<path d="M82.1048 42.5789H55.5898C54.9114 42.5789 54.3616 42.0289 54.3616 41.3506C54.3616 40.6722 54.9116 40.1222 55.5898 40.1222H58.9365V34.5726C58.9365 33.8943 59.4865 33.3443 60.1646 33.3443C60.8428 33.3443 61.3928 33.8943 61.3928 34.5726V40.1222H64.7246V28.9483C64.7246 28.27 65.2746 27.72 65.9528 27.72C66.6309 27.72 67.181 28.27 67.181 28.9483V40.1222H70.5127V34.5726C70.5127 33.8943 71.0627 33.3443 71.7409 33.3443C72.4191 33.3443 72.9691 33.8943 72.9691 34.5726V40.1222H76.301V28.9483C76.301 28.27 76.851 27.72 77.5292 27.72C78.2074 27.72 78.7574 28.27 78.7574 28.9483V40.1222H82.1041C82.7824 40.1222 83.3323 40.6722 83.3323 41.3506C83.3323 42.0289 82.7831 42.5789 82.1048 42.5789Z" fill="#94B6EF"/>
<path d="M58.4035 57.2636C59.8785 55.9243 60.8063 53.9925 60.8063 51.8479C60.8063 47.8144 57.5248 44.533 53.4911 44.533C49.4548 44.533 46.1711 47.8144 46.1711 51.8479C46.1711 53.9925 47.0994 55.9243 48.5754 57.2636C45.2315 58.5164 42.8442 61.7456 42.8442 65.5234V67.9551C42.8442 68.3798 43.0636 68.7744 43.4245 68.9984C46.3215 70.798 49.8025 71.7494 53.4911 71.7494C57.1741 71.7494 60.6547 70.7982 63.5569 68.9991C63.9181 68.775 64.1379 68.3801 64.1379 67.9551V65.5234C64.138 61.7456 61.7493 58.5164 58.4035 57.2636ZM53.4911 46.9899C56.1702 46.9899 58.3497 49.1692 58.3497 51.8481C58.3497 54.527 56.1702 56.7065 53.4911 56.7065C50.8094 56.7065 48.6276 54.527 48.6276 51.8481C48.6276 49.1692 50.8094 46.9899 53.4911 46.9899ZM61.6815 67.2532C59.2879 68.5895 56.4715 69.2928 53.4911 69.2928C50.5515 69.2928 47.671 68.5721 45.301 67.253V65.5234C45.301 62.0163 48.152 59.1631 51.6562 59.1631H55.3212C58.8282 59.1631 61.6815 62.0162 61.6815 65.5234V67.2532ZM81.174 57.2637C82.649 55.9245 83.5766 53.9926 83.5766 51.8481C83.5766 47.8146 80.2951 44.5331 76.2617 44.5331C72.2282 44.5331 68.9465 47.8146 68.9465 51.8481C68.9465 53.9926 69.8743 55.9245 71.3493 57.2637C68.0035 58.5165 65.6148 61.7458 65.6148 65.5235V67.9553C65.6148 68.3803 65.8345 68.7753 66.1957 68.9993C69.0979 70.7984 72.5787 71.7495 76.2615 71.7495C79.9443 71.7495 83.4249 70.7984 86.3272 68.9993C86.6885 68.7751 86.9082 68.3803 86.9082 67.9553V65.5235C86.9086 61.7456 84.5199 58.5164 81.174 57.2637ZM76.2618 46.9899C78.9407 46.9899 81.1203 49.1692 81.1203 51.8481C81.1203 54.527 78.9407 56.7065 76.2618 56.7065C73.5828 56.7065 71.4032 54.527 71.4032 51.8481C71.4032 49.1692 73.5828 46.9899 76.2618 46.9899ZM84.452 67.2532C82.0584 68.5895 79.242 69.2928 76.2618 69.2928C73.2816 69.2928 70.4651 68.5895 68.0715 67.2532V65.5234C68.0715 62.0163 70.9248 59.1631 74.4318 59.1631H78.0917C81.5987 59.1631 84.452 62.0162 84.452 65.5234V67.2532Z" fill="#F77A33"/>
</svg>
