<svg width="191" height="182" viewBox="0 0 191 182" fill="none" xmlns="http://www.w3.org/2000/svg">
<path opacity="0.1" d="M190.8 1.8L186.4 35C175.467 34.2 167.2 36.3333 161.6 41.4C156 46.4667 152.4 53.4 150.8 62.2C149.2 71 148.8 80.7333 149.6 91.4H190.8V181.8H112.4V79.4C112.4 51.4 119.2 30.3333 132.8 16.2C146.667 1.8 166 -3 190.8 1.8ZM78.4 1.8L74 35C63.0667 34.2 54.8 36.3333 49.2 41.4C43.6 46.4667 40 53.4 38.4 62.2C36.8 71 36.4 80.7333 37.2 91.4H78.4V181.8H0V79.4C0 51.4 6.79999 30.3333 20.4 16.2C34.2667 1.8 53.6 -3 78.4 1.8Z" fill="#F77A33"/>
</svg>
